<?xml version="1.0" standalone="no"?>
<!DOCTYPE svg PUBLIC "-//W3C//DTD SVG 20010904//EN"
 "http://www.w3.org/TR/2001/REC-SVG-20010904/DTD/svg10.dtd">
<svg version="1.0" xmlns="http://www.w3.org/2000/svg"
 width="192.000000pt" height="192.000000pt" viewBox="0 0 192.000000 192.000000"
 preserveAspectRatio="xMidYMid meet">

<g transform="translate(0.000000,192.000000) scale(0.100000,-0.100000)"
fill="#000000" stroke="none">
<path d="M735 1790 c-324 -65 -563 -233 -676 -474 -80 -171 -76 -346 12 -523
67 -136 214 -275 374 -355 156 -79 386 -124 574 -115 l114 6 66 -48 c140 -102
278 -169 430 -209 85 -22 108 -19 123 14 9 20 6 30 -18 66 -16 23 -46 67 -67
97 -32 48 -117 210 -117 225 0 2 29 25 64 50 145 104 258 267 291 422 62 295
-107 588 -433 749 -215 106 -501 143 -737 95z m343 -259 c351 -92 479 -522
235 -788 -93 -102 -217 -155 -358 -154 -415 2 -628 495 -347 802 62 67 146
118 231 141 87 22 152 22 239 -1z"/>
<path d="M860 1311 c-97 -40 -159 -131 -160 -236 0 -92 15 -132 73 -190 114
-113 260 -113 374 0 58 58 73 98 73 190 0 74 -24 130 -78 182 -72 69 -188 92
-282 54z"/>
</g>
</svg>
